# AST/ASF file generated using VICON BodyLanguage
# -----------------------------------------------
:version 1.10
:name VICON
:units
  mass 1.0
  length 0.45
  angle deg
:documentation
   .ast/.asf automatically generated from VICON data using
   VICON BodyBuilder and BodyLanguage model FoxedUp or BRILLIANT.MOD
:root
   order TX TY TZ RX RY RZ
   axis XYZ
   position 0 0 0  
   orientation 0 0 0 
:bonedata
  begin
     id 1 
     name lhipjoint
     direction 0.621036 -0.695554 0.361275 
     length 2.46325 
     axis 0 0 0  XYZ
  end
  begin
     id 2 
     name lfemur
     direction 0.34202 -0.939693 0  
     length 6.54784  
     axis 0 0 20  XYZ
    dof rx ry rz
    limits (-160.0 20.0)
           (-70.0 70.0)
           (-60.0 70.0)
  end
  begin
     id 3 
     name ltibia
     direction 0.34202 -0.939693 0   
     length 7.84737   
     axis 0 0 20   XYZ
    dof rx
    limits (-10.0 170.0)
  end
  begin
     id 4 
     name lfoot
     direction 0.0790693 -0.217241 0.97291   
     length 2.59747   
     axis -90 7.62852e-016 20   XYZ
    dof rx rz
    limits (-45.0 90.0)
           (-70.0 20.0)
  end
  begin
     id 5 
     name ltoes
     direction 1.53572e-011 -4.21898e-011 1   
     length 1.29919   
     axis -90 7.62852e-016 20   XYZ
    dof rx
    limits (-90.0 20.0)
  end
  begin
     id 6 
     name rhipjoint
     direction -0.602353 -0.708375 0.367935   
     length 2.41867  
     axis 0 0 0  XYZ 
  end
  begin
     id 7 
     name rfemur
     direction -0.34202 -0.939693 0   
     length 6.92065   
     axis 0 0 -20   XYZ
    dof rx ry rz
    limits (-160.0 20.0)
           (-70.0 70.0)
           (-70.0 60.0)
  end
  begin
     id 8 
     name rtibia
     direction -0.34202 -0.939693 0   
     length 7.88883   
     axis 0 0 -20   XYZ
    dof rx
    limits (-10.0 170.0)
 end
 begin
     id 9 
     name rfoot
     direction -0.0768692 -0.211196 0.974416   
     length 2.43714  
     axis -90 -7.62852e-016 -20   XYZ
    dof rx rz
    limits (-45.0 90.0)
           (-20.0 70.0)
  end
  begin
     id 10 
     name rtoes
     direction -1.53575e-011 -4.21933e-011 1   
     length 1.22113   
     axis -90 -7.62852e-016 -20   XYZ
    dof rx
    limits (-90.0 20.0)
  end
  begin
     id 11 
     name lowerback
     direction 0.0197937 0.98943 -0.143655   
     length 2.16931   
     axis 0 0 0   XYZ
    dof rx ry rz
    limits (-20.0 45.0)
           (-30.0 30.0)
           (-30.0 30.0)
  end
  begin
     id 12 
     name upperback
     direction -0.00183968 0.999975 0.00684288   
     length 2.17221   
     axis 0 0 0   XYZ
    dof rx ry rz
    limits (-20.0 45.0)
           (-30.0 30.0)
           (-30.0 30.0)
  end
  begin
     id 13 
     name thorax
     direction -0.00950244 0.997208 0.0740685   
     length 2.22549   
     axis 0 0 0   XYZ
    dof rx ry rz
    limits (-20.0 45.0)
           (-30.0 30.0)
           (-30.0 30.0)
  end
  begin
     id 14 
     name lowerneck
     direction 0.0218238 0.996215 0.0841425   
     length 1.77269   
     axis 0 0 0   XYZ
    dof rx ry rz
    limits (-20.0 45.0)
           (-30.0 30.0)
           (-30.0 30.0)
  end
  begin
     id 15 
     name upperneck
     direction -0.00430652 0.994214 -0.107332   
     length 1.76534   
     axis 0 0 0   XYZ
    dof rx ry rz
    limits (-20.0 45.0)
           (-30.0 30.0)
           (-30.0 30.0)
  end
  begin
     id 16
     name head
     direction -0.00328946 0.998959 -0.0454998  
     length 1.82634  
     axis 0 0 0   XYZ
    dof rx ry rz
    limits (-20.0 45.0)
           (-30.0 30.0)
           (-30.0 30.0)
  end
  begin
     id 17 
     name lclavicle
     direction 0.970962 0.239191 0.00450212  
     length 3.84872  
     axis 0 0 0   XYZ
    dof ry rz
    limits (-20.0 10.0)
           (0.0 20.0)
  end
  begin
     id 18 
     name lhumerus
     direction 1 -4.48966e-011 5.74696e-028   
     length 5.22771   
     axis 180 -30 -90   XYZ
    dof rx ry rz
    limits (-60.0 90.0)
           (-90.0 90.0)
           (-90.0 90.0)
  end
  begin
     id 19
     name lradius
     direction 1 -4.4896e-011 4.25109e-027   
     length 3.45251   
     axis 180 -30 -90   XYZ
    dof rx
    limits (-10.0 170.0)
  end
  begin
     id 20
     name lwrist
     direction 1 -4.48971e-011 1.15382e-027   
     length 1.72626   
     axis -5.52449e-016 90 90   XYZ
    dof ry
    limits (-180.0 0.0)
 end
  begin
     id 21 
     name lhand
     direction 1 -4.49034e-011 2.30765e-027   
     length 0.552119   
     axis -1.47248e-015 90 90   XYZ
    dof rx rz
    limits (-90.0 90.0)
           (-45.0 45.0)
  end
  begin
     id 22 
     name lfingers
     direction 1 -4.48951e-011 4.61529e-027   
     length 0.445133   
     axis -2.94495e-015 90 90   XYZ
    dof rx
    limits (0.0 90.0)
  end
  begin
     id 23
     name lthumb
     direction 0.707107 -6.34991e-011 0.707107   
     length 0.639124   
     axis -90 45 2.85299e-015   XYZ
    dof rx rz
    limits (-45.0 45.0)
           (-45.0 45.0)
  end
  begin
     id 24 
     name rclavicle
     direction -0.97424 0.222511 -0.0366699   
     length 3.73439  
     axis 0 0 0   XYZ 
    dof ry rz
    limits (-10.0 20.0)
           (-20.0 0.0)
  end
  begin
     id 25 
     name rhumerus
     direction -1 -4.48956e-011 -4.97258e-028  
     length 5.2398   
     axis 180 30 90   XYZ
    dof rx ry rz
    limits (-90.0 60.0)
           (-90.0 90.0)
           (-90.0 90.0)
  end
  begin
     id 26 
     name rradius
     direction -1 -4.4897e-011 -1.72611e-027   
     length 3.48042   
     axis 180 30 90   XYZ
    dof rx
    limits (-10.0 170.0)
  end
  begin
     id 27 
     name rwrist
     direction -1 -4.48976e-011 1.15382e-027   
     length 1.74021   
     axis -5.52449e-016 -90 -90   XYZ
    dof ry
    limits (-180.0 0.0)
  end
  begin
     id 28
     name rhand
     direction -1 -4.48963e-011 2.30765e-027   
     length 0.618713   
     axis -1.47248e-015 -90 -90   XYZ
    dof rx rz
    limits (-90.0 90.0)
           (-45.0 45.0)
  end
  begin
     id 29
     name rfingers
     direction -1 -4.4888e-011 4.61529e-027   
     length 0.498823   
     axis -2.94495e-015 -90 -90   XYZ
    dof rx
    limits (0.0 90.0)
  end
  begin
     id 30
     name rthumb
     direction -0.707107 -6.34968e-011 0.707107   
     length 0.716213   
     axis -90 -45 -2.85299e-015   XYZ
    dof rx rz
    limits (-45.0 45.0)
           (-45.0 45.0)
  end
:hierarchy
  begin
    root lhipjoint rhipjoint lowerback
    lhipjoint lfemur
    lfemur ltibia
    ltibia lfoot
    lfoot ltoes
    rhipjoint rfemur
    rfemur rtibia
    rtibia rfoot
    rfoot rtoes
    lowerback upperback
    upperback thorax
    thorax lowerneck lclavicle rclavicle
    lowerneck upperneck
    upperneck head
    lclavicle lhumerus
    lhumerus lradius
    lradius lwrist
    lwrist lhand lthumb
    lhand lfingers
    rclavicle rhumerus
    rhumerus rradius
    rradius rwrist
    rwrist rhand rthumb
    rhand rfingers
  end

#!OML:ASF G:\JayActor3\Patient Classification 1\Patient 1\Session 5\male.ASF
:FULLY-SPECIFIED
:DEGREES
327
root -29.4277 14.3006 -5.84453 183.94 -87.7922 -169.154
lowerback 33.2272 -0.144968 0.29837
upperback 6.55726 -0.871795 -0.487856
thorax -9.78231 -0.707725 -0.298171
lowerneck -3.19722 1.16034 1.99856
upperneck -20.5372 0.938954 0.135601
head -5.66704 -0.0394933 -0.296098
rclavicle -2.44505e-014 -5.56597e-014
rhumerus -18.365 7.55804 -85.7736
rradius 47.1961
rwrist -7.2044
rhand -20.4088 -8.917
rfingers 7.12502
rthumb 5.94517 -38.8136
lclavicle -2.44505e-014 -5.56597e-014
lhumerus -16.6923 -8.32394 81.8055
lradius 44.6021
lwrist 26.7863
lhand -18.8749 12.6581
lfingers 7.12502
lthumb 7.42591 42.5077
rfemur -48.5729 -6.06324 23.4622
rtibia 91.4206
rfoot -30.6147 -4.92434
rtoes -28.2562
lfemur -73.2985 5.43351 -25.478
ltibia 64.3913
lfoot -7.96414 9.77481
ltoes 4.63318
328
root -29.3416 14.2929 -5.87468 184.633 -87.9074 -169.955
lowerback 33.2473 -0.151751 0.279733
upperback 6.57739 -0.889215 -0.496261
thorax -9.76795 -0.715981 -0.290497
lowerneck -3.2291 1.14966 1.98021
upperneck -20.5037 0.929036 0.16629
head -5.6515 -0.04391 -0.282868
rclavicle -1.11319e-014 -2.10712e-014
rhumerus -18.3867 7.6111 -85.8228
rradius 47.2102
rwrist -7.21415
rhand -20.4466 -8.92552
rfingers 7.12502
rthumb 5.90866 -38.8231
lclavicle -1.11319e-014 -2.10712e-014
lhumerus -16.7315 -8.34884 81.7886
lradius 44.7445
lwrist 26.8856
lhand -18.8266 12.7474
lfingers 7.12502
lthumb 7.47256 42.5954
rfemur -48.471 -6.01282 23.689
rtibia 91.091
rfoot -31.5416 -5.15671
rtoes -27.8566
lfemur -73.3303 5.40781 -25.4241
ltibia 63.9806
lfoot -7.34321 9.74076
ltoes 4.53057
329
root -29.2536 14.2869 -5.90543 185.369 -88.0255 -170.796
lowerback 33.2752 -0.160934 0.268216
upperback 6.59586 -0.907429 -0.506202
thorax -9.7586 -0.724741 -0.28786
lowerneck -3.26544 1.13674 1.94975
upperneck -20.4619 0.917983 0.209433
head -5.63275 -0.048529 -0.263631
rclavicle 1.09332e-014 2.18663e-014
rhumerus -18.403 7.66367 -85.8741
rradius 47.221
rwrist -7.21725
rhand -20.4854 -8.93752
rfingers 7.12502
rthumb 5.87121 -38.8362
lclavicle 1.09332e-014 2.18663e-014
lhumerus -16.7641 -8.40027 81.7708
lradius 44.8686
lwrist 26.9959
lhand -18.7921 12.8456
lfingers 7.12502
lthumb 7.5058 42.6924
rfemur -48.4271 -5.93874 23.8996
rtibia 90.7925
rfoot -32.3291 -5.36355
rtoes -27.4446
lfemur -73.3474 5.37213 -25.3629
ltibia 63.5293
lfoot -6.6765 9.70805
ltoes 4.3712
330
root -29.1639 14.2828 -5.93662 186.511 -88.1481 -172.04
lowerback 33.3132 -0.172849 0.25376
upperback 6.61251 -0.930676 -0.521005
thorax -9.75527 -0.735738 -0.286785
lowerneck -3.30318 1.12475 1.91376
upperneck -20.414 0.908978 0.256068
head -5.61189 -0.0517139 -0.242466
rclavicle -1.5704e-014 -2.08724e-014
rhumerus -18.4136 7.71388 -85.9301
rradius 47.23
rwrist -7.21448
rhand -20.5217 -8.94338
rfingers 7.12502
rthumb 5.83617 -38.843
lclavicle -1.5704e-014 -2.08724e-014
lhumerus -16.801 -8.47785 81.7542
lradius 44.9742
lwrist 27.0892
lhand -18.7866 12.8956
lfingers 7.12502
lthumb 7.5111 42.7422
rfemur -48.4445 -5.85237 24.0809
rtibia 90.5319
rfoot -32.9668 -5.5534
rtoes -27.0358
lfemur -73.3449 5.32239 -25.3072
ltibia 63.0327
lfoot -5.96356 9.67533
ltoes 4.15575
331
root -29.0721 14.2801 -5.96818 187.712 -88.2729 -173.343
lowerback 33.369 -0.186846 0.248058
upperback 6.6281 -0.953949 -0.536126
thorax -9.76008 -0.747028 -0.290485
lowerneck -3.35515 1.11231 1.8713
upperneck -20.3537 0.899294 0.304654
head -5.58476 -0.0545969 -0.219551
rclavicle -7.35503e-015 1.27222e-014
rhumerus -18.4126 7.76443 -85.9854
rradius 47.2352
rwrist -7.20799
rhand -20.5528 -8.94534
rfingers 7.12502
rthumb 5.80612 -38.8458
lclavicle -7.35503e-015 1.27222e-014
lhumerus -16.8317 -8.5886 81.7411
lradius 45.0526
lwrist 27.1642
lhand -18.8321 12.8883
lfingers 7.12502
lthumb 7.46719 42.7365
rfemur -48.5256 -5.75057 24.2518
rtibia 90.3144
rfoot -33.451 -5.74581
rtoes -26.6515
lfemur -73.3265 5.26383 -25.245
ltibia 62.4895
lfoot -5.18372 9.64249
ltoes 3.80391
332
root -28.9784 14.2786 -6.0002 189.605 -88.4015 -175.336
lowerback 33.4417 -0.202841 0.230864
upperback 6.64114 -0.984077 -0.553791
thorax -9.77428 -0.761239 -0.287923
lowerneck -3.419 1.10159 1.82039
upperneck -20.2781 0.892463 0.356819
head -5.55088 -0.0552687 -0.194199
rclavicle 1.70955e-014 2.68359e-014
rhumerus -18.4013 7.82248 -86.042
rradius 47.2371
rwrist -7.19718
rhand -20.5801 -8.94522
rfingers 7.12502
rthumb 5.77979 -38.8464
lclavicle 1.70955e-014 2.68359e-014
lhumerus -16.8621 -8.71449 81.7309
lradius 45.1083
lwrist 27.2125
lhand -18.8886 12.8549
lfingers 7.12502
lthumb 7.41272 42.7051
rfemur -48.6684 -5.64495 24.3985
rtibia 90.1413
rfoot -33.8133 -5.91349
rtoes -26.2177
lfemur -73.291 5.19236 -25.1937
ltibia 61.8986
lfoot -4.34314 9.60392
ltoes 3.3353
333
root -28.883 14.2781 -6.03241 192.294 -88.5419 -178.127
lowerback 33.5324 -0.224272 0.215565
upperback 6.65691 -1.02128 -0.573776
thorax -9.79249 -0.778932 -0.285931
lowerneck -3.49479 1.08882 1.76917
upperneck -20.1985 0.881176 0.402292
head -5.51375 -0.0577053 -0.170726
rclavicle -1.0138e-014 -7.15625e-015
rhumerus -18.3722 7.87746 -86.0936
rradius 47.2358
rwrist -7.18238
rhand -20.5934 -8.93697
rfingers 7.12502
rthumb 5.7669 -38.8385
lclavicle -1.0138e-014 -7.15625e-015
lhumerus -16.8784 -8.86107 81.7245
lradius 45.1387
lwrist 27.2419
lhand -18.9301 12.8242
lfingers 7.12502
lthumb 7.37266 42.6758
rfemur -48.858 -5.54455 24.5303
rtibia 90.0035
rfoot -34.0793 -6.0789
rtoes -25.7271
lfemur -73.2342 5.10097 -25.1504
ltibia 61.2616
lfoot -3.43617 9.55272
ltoes 2.71109
334
root -28.7857 14.2785 -6.06517 196.369 -88.6888 -182.299
lowerback 33.6356 -0.248234 0.186307
upperback 6.67194 -1.0668 -0.595661
thorax -9.81616 -0.800145 -0.275157
lowerneck -3.57906 1.07421 1.7136
upperneck -20.1102 0.867603 0.450429
head -5.47256 -0.0609278 -0.145619
rclavicle 3.18055e-015 2.78299e-015
rhumerus -18.3312 7.93726 -86.1425
rradius 47.2311
rwrist -7.16436
rhand -20.6018 -8.92902
rfingers 7.12502
rthumb 5.75878 -38.8308
lclavicle 3.18055e-015 2.78299e-015
lhumerus -16.893 -9.01924 81.7223
lradius 45.148
lwrist 27.2416
lhand -18.9929 12.7705
lfingers 7.12502
lthumb 7.31197 42.6241
rfemur -49.0879 -5.44709 24.6492
rtibia 89.8878
rfoot -34.2843 -6.25291
rtoes -25.1273
lfemur -73.161 4.99325 -25.1208
ltibia 60.5803
lfoot -2.47643 9.48041
ltoes 1.97533
335
root -28.6868 14.2802 -6.09846 202.395 -88.8385 -188.419
lowerback 33.7459 -0.274259 0.144958
upperback 6.69005 -1.11944 -0.617598
thorax -9.83899 -0.824466 -0.255163
lowerneck -3.67307 1.05592 1.65443
upperneck -20.0226 0.848633 0.50085
head -5.43005 -0.0668985 -0.118992
rclavicle 8.34896e-015 1.09332e-014
rhumerus -18.2712 7.9977 -86.1836
rradius 47.2224
rwrist -7.14546
rhand -20.6082 -8.91756
rfingers 7.12502
rthumb 5.75265 -38.8195
lclavicle 8.34896e-015 1.09332e-014
lhumerus -16.896 -9.17378 81.7252
lradius 45.1462
lwrist 27.2412
lhand -19.0198 12.7521
lfingers 7.12502
lthumb 7.28604 42.6067
rfemur -49.3406 -5.35788 24.7618
rtibia 89.7734
rfoot -34.46 -6.44997
rtoes -24.4458
lfemur -73.0719 4.87182 -25.1051
ltibia 59.8583
lfoot -1.48071 9.37907
ltoes 1.18972
336
root -28.5867 14.2835 -6.13277 211.098 -88.9779 -197.205
lowerback 33.8544 -0.296423 0.0888903
upperback 6.70997 -1.17215 -0.637984
thorax -9.85865 -0.848471 -0.225627
lowerneck -3.77383 1.03013 1.58994
upperneck -19.938 0.81936 0.55525
head -5.38747 -0.0780282 -0.0898762
rclavicle -8.34896e-015 -3.10104e-014
rhumerus -18.2008 8.04788 -86.2136
rradius 47.2167
rwrist -7.12528
rhand -20.6057 -8.91952
rfingers 7.12502
rthumb 5.75503 -38.8214
lclavicle -8.34896e-015 -3.10104e-014
lhumerus -16.893 -9.34093 81.7394
lradius 45.1291
lwrist 27.2179
lhand -19.033 12.7556
lfingers 7.12502
lthumb 7.2733 42.6106
rfemur -49.6049 -5.2711 24.8772
rtibia 89.6418
rfoot -34.635 -6.69259
rtoes -23.7105
lfemur -72.9727 4.74589 -25.1023
ltibia 59.1004
lfoot -0.466787 9.24332
ltoes 0.431
337
root -28.4854 14.2885 -6.16818 222.835 -89.1013 -209.015
lowerback 33.9619 -0.317571 0.0312104
upperback 6.73232 -1.22352 -0.652475
thorax -9.87487 -0.871831 -0.189473
lowerneck -3.88861 0.997233 1.51664
upperneck -19.8542 0.780708 0.618099
head -5.34297 -0.0939229 -0.0563177
rclavicle -1.19271e-014 -2.3059e-014
rhumerus -18.1216 8.08751 -86.2303
rradius 47.2186
rwrist -7.10341
rhand -20.6053 -8.93281
rfingers 7.12502
rthumb 5.75547 -38.8346
lclavicle -1.19271e-014 -2.3059e-014
lhumerus -16.8776 -9.51902 81.7653
lradius 45.0931
lwrist 27.1827
lhand -19.0582 12.7453
lfingers 7.12502
lthumb 7.24901 42.6011
rfemur -49.8641 -5.19146 25.0132
rtibia 89.4731
rfoot -34.8283 -6.98779
rtoes -22.9357
lfemur -72.868 4.62027 -25.1006
ltibia 58.3119
lfoot 0.559775 9.06764
ltoes -0.263721
